<svg width="68" height="60" viewBox="0 0 68 60" fill="none" xmlns="http://www.w3.org/2000/svg">
<path opacity="0.354986" fill-rule="evenodd" clip-rule="evenodd" d="M34 60C50.5685 60 64 46.5685 64 30C64 13.4315 50.5685 0 34 0C17.4315 0 4 13.4315 4 30C4 46.5685 17.4315 60 34 60Z" fill="#47D7AC"/>
<path fill-rule="evenodd" clip-rule="evenodd" d="M34 54C47.2548 54 58 43.2548 58 30C58 16.7452 47.2548 6 34 6C20.7452 6 10 16.7452 10 30C10 43.2548 20.7452 54 34 54Z" fill="#47D7AC"/>
<path fill-rule="evenodd" clip-rule="evenodd" d="M20.0002 30C20.0002 29.7348 20.1055 29.4805 20.2931 29.2929C20.4806 29.1054 20.735 29 21.0002 29H44.5862L38.2922 22.708C38.1992 22.6151 38.1254 22.5047 38.0751 22.3832C38.0248 22.2617 37.9989 22.1315 37.9989 22C37.9989 21.8685 38.0248 21.7383 38.0751 21.6169C38.1254 21.4954 38.1992 21.385 38.2922 21.292C38.3851 21.1991 38.4955 21.1253 38.617 21.075C38.7385 21.0247 38.8687 20.9988 39.0002 20.9988C39.1317 20.9988 39.2619 21.0247 39.3833 21.075C39.5048 21.1253 39.6152 21.1991 39.7082 21.292L47.7082 29.292C47.8013 29.3849 47.8752 29.4953 47.9256 29.6168C47.976 29.7383 48.002 29.8685 48.002 30C48.002 30.1316 47.976 30.2618 47.9256 30.3833C47.8752 30.5048 47.8013 30.6151 47.7082 30.708L39.7082 38.708C39.6152 38.801 39.5048 38.8748 39.3833 38.9251C39.2619 38.9754 39.1317 39.0013 39.0002 39.0013C38.8687 39.0013 38.7385 38.9754 38.617 38.9251C38.4955 38.8748 38.3851 38.801 38.2922 38.708C38.1992 38.6151 38.1254 38.5047 38.0751 38.3832C38.0248 38.2617 37.9989 38.1315 37.9989 38C37.9989 37.8685 38.0248 37.7383 38.0751 37.6169C38.1254 37.4954 38.1992 37.385 38.2922 37.292L44.5862 31H21.0002C20.735 31 20.4806 30.8947 20.2931 30.7071C20.1055 30.5196 20.0002 30.2652 20.0002 30Z" fill="white"/>
</svg>
