<svg width="30" height="28" viewBox="0 0 30 28" fill="none" xmlns="http://www.w3.org/2000/svg">
<path d="M29.6666 14C29.6666 13.4477 29.2189 13 28.6666 13H4.14579L14.4179 2.72791C14.7917 2.35405 14.81 1.75378 14.4595 1.35792L14.4044 1.29565C14.0225 0.864264 13.3559 0.844014 12.9485 1.25142L0.865398 13.3346C0.474874 13.7251 0.474874 14.3583 0.865398 14.7488L12.9485 26.8319C13.3559 27.2393 14.0225 27.2191 14.4044 26.7877L14.4595 26.7254C14.81 26.3296 14.7917 25.7293 14.4179 25.3554L4.14579 15.0833H28.6666C29.2189 15.0833 29.6666 14.6356 29.6666 14.0833V14Z" fill="#2D295A"/>
</svg>
