<svg width="24" height="24" viewBox="0 0 24 24" fill="none" xmlns="http://www.w3.org/2000/svg">
<g clip-path="url(#clip0)">
<path d="M13.296 0.0689737C11.862 -0.289526 10.53 0.794974 10.434 2.19897C10.326 3.77547 10.089 5.22297 9.792 6.08397C9.6045 6.62397 9.0735 7.60347 8.232 8.54247C7.3965 9.47697 6.309 10.3095 5.0355 10.6575C4.0275 10.932 3 11.805 3 13.08V19.0815C3 20.349 4.023 21.2775 5.172 21.399C6.777 21.57 7.518 22.0215 8.274 22.4835L8.346 22.5285C8.754 22.776 9.213 23.0505 9.801 23.2545C10.3965 23.4585 11.0925 23.58 12 23.58H17.25C18.6555 23.58 19.6485 22.8645 20.151 21.984C20.3939 21.5685 20.5251 21.0972 20.532 20.616C20.532 20.388 20.4975 20.148 20.4165 19.92C20.718 19.5255 20.9865 19.053 21.1485 18.5685C21.3135 18.0735 21.4065 17.4255 21.1545 16.845C21.258 16.65 21.3345 16.4415 21.393 16.2405C21.5085 15.8355 21.5625 15.3885 21.5625 14.955C21.5625 14.523 21.5085 14.0775 21.393 13.671C21.3405 13.4841 21.2712 13.3024 21.186 13.128C21.4487 12.7543 21.6176 12.3229 21.6787 11.8703C21.7398 11.4176 21.6912 10.9569 21.537 10.527C21.228 9.63897 20.514 8.87697 19.737 8.61897C18.4665 8.19597 17.0325 8.20497 15.963 8.30247C15.741 8.32245 15.5194 8.34746 15.2985 8.37747C15.8189 6.14905 15.7869 3.82725 15.2055 1.61397C15.1043 1.25936 14.9103 0.938201 14.6434 0.683718C14.3765 0.429235 14.0465 0.250665 13.6875 0.166474L13.296 0.0689737ZM17.25 22.0815H12C11.235 22.0815 10.7055 21.978 10.29 21.8355C9.8685 21.69 9.531 21.4935 9.126 21.246L9.066 21.21C8.2335 20.7015 7.269 20.1135 5.331 19.908C4.8315 19.854 4.5 19.473 4.5 19.083V13.08C4.5 12.699 4.839 12.2655 5.43 12.105C7.0725 11.655 8.3955 10.611 9.351 9.54297C10.3035 8.47797 10.947 7.33047 11.208 6.57597C11.5725 5.52597 11.8185 3.92397 11.931 2.30097C11.9685 1.75797 12.471 1.40997 12.9315 1.52397L13.3245 1.62297C13.5645 1.68297 13.7115 1.83747 13.7565 2.00547C14.3691 4.33951 14.2935 6.8009 13.539 9.09297C13.4963 9.22045 13.4886 9.35707 13.5168 9.48853C13.545 9.61998 13.608 9.74144 13.6993 9.84019C13.7905 9.93894 13.9066 10.0113 14.0354 10.0498C14.1642 10.0883 14.301 10.0915 14.4315 10.059L14.436 10.0575L14.457 10.053L14.544 10.032C15.0569 9.92305 15.5758 9.84441 16.098 9.79647C17.0925 9.70647 18.2835 9.71547 19.263 10.0425C19.5255 10.1295 19.938 10.4925 20.118 11.0175C20.2785 11.4795 20.2485 12.0225 19.719 12.5505L19.1895 13.08L19.719 13.611C19.7835 13.6755 19.8765 13.8225 19.95 14.0835C20.022 14.334 20.0625 14.6385 20.0625 14.955C20.0625 15.273 20.022 15.576 19.95 15.828C19.875 16.089 19.7835 16.236 19.719 16.3005L19.1895 16.83L19.719 17.361C19.7895 17.4315 19.8825 17.6265 19.7265 18.093C19.5639 18.5453 19.3055 18.9572 18.969 19.3005L18.4395 19.83L18.969 20.361C18.978 20.3685 19.0305 20.436 19.0305 20.616C19.0238 20.836 18.9614 21.0507 18.849 21.24C18.6015 21.672 18.0945 22.08 17.25 22.08V22.0815Z" fill="white"/>
</g>
<defs>
<clipPath id="clip0">
<rect width="24" height="24" fill="white"/>
</clipPath>
</defs>
</svg>
