<svg width="45" height="44" viewBox="0 0 45 44" fill="none" xmlns="http://www.w3.org/2000/svg">
<rect opacity="0.350303" width="45" height="44" rx="12" fill="#47D7AC"/>
<path d="M20.25 14.25V18.625C20.25 18.97 19.97 19.25 19.625 19.25H15.25V24.75H19.625C19.97 24.75 20.25 25.03 20.25 25.375V29.75H25.75V25.375C25.75 25.03 26.03 24.75 26.375 24.75H30.75V19.25H26.375C26.03 19.25 25.75 18.97 25.75 18.625V14.25H20.25ZM19 14.125C19 13.8266 19.1185 13.5405 19.3295 13.3295C19.5405 13.1185 19.8266 13 20.125 13H25.875C26.1734 13 26.4595 13.1185 26.6705 13.3295C26.8815 13.5405 27 13.8266 27 14.125V18H30.875C31.1734 18 31.4595 18.1185 31.6705 18.3295C31.8815 18.5405 32 18.8266 32 19.125V24.875C32 25.1734 31.8815 25.4595 31.6705 25.6705C31.4595 25.8815 31.1734 26 30.875 26H27V29.875C27 30.1734 26.8815 30.4595 26.6705 30.6705C26.4595 30.8815 26.1734 31 25.875 31H20.125C19.8266 31 19.5405 30.8815 19.3295 30.6705C19.1185 30.4595 19 30.1734 19 29.875V26H15.125C14.8266 26 14.5405 25.8815 14.3295 25.6705C14.1185 25.4595 14 25.1734 14 24.875V19.125C14 18.8266 14.1185 18.5405 14.3295 18.3295C14.5405 18.1185 14.8266 18 15.125 18H19V14.125Z" fill="#47D7AC"/>
</svg>
