<svg width="45" height="44" viewBox="0 0 45 44" fill="none" xmlns="http://www.w3.org/2000/svg">
<rect opacity="0.350303" width="45" height="44" rx="12" fill="#435FC2"/>
<path d="M32.5 31C32.5 31 34 31 34 29.5C34 28 32.5 23.5 26.5 23.5C20.5 23.5 19 28 19 29.5C19 31 20.5 31 20.5 31H32.5ZM20.533 29.5C20.5219 29.4985 20.5109 29.4965 20.5 29.494C20.5015 29.098 20.7505 27.949 21.64 26.914C22.468 25.9435 23.923 25 26.5 25C29.0755 25 30.5305 25.945 31.36 26.914C32.2495 27.949 32.497 29.0995 32.5 29.494L32.488 29.497C32.481 29.4982 32.474 29.4992 32.467 29.5H20.533ZM26.5 20.5C27.2956 20.5 28.0587 20.1839 28.6213 19.6213C29.1839 19.0587 29.5 18.2956 29.5 17.5C29.5 16.7044 29.1839 15.9413 28.6213 15.3787C28.0587 14.8161 27.2956 14.5 26.5 14.5C25.7044 14.5 24.9413 14.8161 24.3787 15.3787C23.8161 15.9413 23.5 16.7044 23.5 17.5C23.5 18.2956 23.8161 19.0587 24.3787 19.6213C24.9413 20.1839 25.7044 20.5 26.5 20.5ZM31 17.5C31 18.0909 30.8836 18.6761 30.6575 19.2221C30.4313 19.768 30.0998 20.2641 29.682 20.682C29.2641 21.0998 28.768 21.4313 28.2221 21.6575C27.6761 21.8836 27.0909 22 26.5 22C25.9091 22 25.3239 21.8836 24.7779 21.6575C24.232 21.4313 23.7359 21.0998 23.318 20.682C22.9002 20.2641 22.5687 19.768 22.3425 19.2221C22.1164 18.6761 22 18.0909 22 17.5C22 16.3065 22.4741 15.1619 23.318 14.318C24.1619 13.4741 25.3065 13 26.5 13C27.6935 13 28.8381 13.4741 29.682 14.318C30.5259 15.1619 31 16.3065 31 17.5ZM20.404 23.92C19.804 23.7311 19.1855 23.6069 18.559 23.5495C18.207 23.516 17.8536 23.4995 17.5 23.5C11.5 23.5 10 28 10 29.5C10 30.5005 10.4995 31 11.5 31H17.824C17.6016 30.5317 17.4907 30.0183 17.5 29.5C17.5 27.985 18.0655 26.437 19.135 25.144C19.4995 24.703 19.924 24.2905 20.404 23.92ZM17.38 25C16.4922 26.3339 16.0127 27.8977 16 29.5H11.5C11.5 29.11 11.746 27.955 12.64 26.914C13.4575 25.96 14.878 25.03 17.38 25.0015V25ZM12.25 18.25C12.25 17.0565 12.7241 15.9119 13.568 15.068C14.4119 14.2241 15.5565 13.75 16.75 13.75C17.9435 13.75 19.0881 14.2241 19.932 15.068C20.7759 15.9119 21.25 17.0565 21.25 18.25C21.25 19.4435 20.7759 20.5881 19.932 21.432C19.0881 22.2759 17.9435 22.75 16.75 22.75C15.5565 22.75 14.4119 22.2759 13.568 21.432C12.7241 20.5881 12.25 19.4435 12.25 18.25ZM16.75 15.25C15.9544 15.25 15.1913 15.5661 14.6287 16.1287C14.0661 16.6913 13.75 17.4544 13.75 18.25C13.75 19.0456 14.0661 19.8087 14.6287 20.3713C15.1913 20.9339 15.9544 21.25 16.75 21.25C17.5456 21.25 18.3087 20.9339 18.8713 20.3713C19.4339 19.8087 19.75 19.0456 19.75 18.25C19.75 17.4544 19.4339 16.6913 18.8713 16.1287C18.3087 15.5661 17.5456 15.25 16.75 15.25Z" fill="#435FC2"/>
</svg>
