<svg width="45" height="44" viewBox="0 0 45 44" fill="none" xmlns="http://www.w3.org/2000/svg">
<rect opacity="0.350303" width="45" height="44" rx="12" fill="#435FC2"/>
<g clip-path="url(#clip0)">
<path d="M24.296 10.069C22.862 9.71047 21.53 10.795 21.434 12.199C21.326 13.7755 21.089 15.223 20.792 16.084C20.6045 16.624 20.0735 17.6035 19.232 18.5425C18.3965 19.477 17.309 20.3095 16.0355 20.6575C15.0275 20.932 14 21.805 14 23.08V29.0815C14 30.349 15.023 31.2775 16.172 31.399C17.777 31.57 18.518 32.0215 19.274 32.4835L19.346 32.5285C19.754 32.776 20.213 33.0505 20.801 33.2545C21.3965 33.4585 22.0925 33.58 23 33.58H28.25C29.6555 33.58 30.6485 32.8645 31.151 31.984C31.3939 31.5685 31.5251 31.0972 31.532 30.616C31.532 30.388 31.4975 30.148 31.4165 29.92C31.718 29.5255 31.9865 29.053 32.1485 28.5685C32.3135 28.0735 32.4065 27.4255 32.1545 26.845C32.258 26.65 32.3345 26.4415 32.393 26.2405C32.5085 25.8355 32.5625 25.3885 32.5625 24.955C32.5625 24.523 32.5085 24.0775 32.393 23.671C32.3405 23.4841 32.2712 23.3024 32.186 23.128C32.4487 22.7543 32.6176 22.3229 32.6787 21.8703C32.7398 21.4176 32.6912 20.9569 32.537 20.527C32.228 19.639 31.514 18.877 30.737 18.619C29.4665 18.196 28.0325 18.205 26.963 18.3025C26.741 18.3225 26.5194 18.3475 26.2985 18.3775C26.8189 16.1491 26.7869 13.8272 26.2055 11.614C26.1043 11.2594 25.9103 10.9382 25.6434 10.6837C25.3765 10.4292 25.0465 10.2507 24.6875 10.1665L24.296 10.069ZM28.25 32.0815H23C22.235 32.0815 21.7055 31.978 21.29 31.8355C20.8685 31.69 20.531 31.4935 20.126 31.246L20.066 31.21C19.2335 30.7015 18.269 30.1135 16.331 29.908C15.8315 29.854 15.5 29.473 15.5 29.083V23.08C15.5 22.699 15.839 22.2655 16.43 22.105C18.0725 21.655 19.3955 20.611 20.351 19.543C21.3035 18.478 21.947 17.3305 22.208 16.576C22.5725 15.526 22.8185 13.924 22.931 12.301C22.9685 11.758 23.471 11.41 23.9315 11.524L24.3245 11.623C24.5645 11.683 24.7115 11.8375 24.7565 12.0055C25.3691 14.3395 25.2935 16.8009 24.539 19.093C24.4963 19.2205 24.4886 19.3571 24.5168 19.4885C24.545 19.62 24.608 19.7414 24.6993 19.8402C24.7905 19.9389 24.9066 20.0113 25.0354 20.0498C25.1642 20.0883 25.301 20.0915 25.4315 20.059L25.436 20.0575L25.457 20.053L25.544 20.032C26.0569 19.923 26.5758 19.8444 27.098 19.7965C28.0925 19.7065 29.2835 19.7155 30.263 20.0425C30.5255 20.1295 30.938 20.4925 31.118 21.0175C31.2785 21.4795 31.2485 22.0225 30.719 22.5505L30.1895 23.08L30.719 23.611C30.7835 23.6755 30.8765 23.8225 30.95 24.0835C31.022 24.334 31.0625 24.6385 31.0625 24.955C31.0625 25.273 31.022 25.576 30.95 25.828C30.875 26.089 30.7835 26.236 30.719 26.3005L30.1895 26.83L30.719 27.361C30.7895 27.4315 30.8825 27.6265 30.7265 28.093C30.5639 28.5453 30.3055 28.9572 29.969 29.3005L29.4395 29.83L29.969 30.361C29.978 30.3685 30.0305 30.436 30.0305 30.616C30.0238 30.836 29.9614 31.0507 29.849 31.24C29.6015 31.672 29.0945 32.08 28.25 32.08V32.0815Z" fill="#435FC2"/>
</g>
<defs>
<clipPath id="clip0">
<rect width="24" height="24" fill="white" transform="translate(11 10)"/>
</clipPath>
</defs>
</svg>
