<svg width="45" height="44" viewBox="0 0 45 44" fill="none" xmlns="http://www.w3.org/2000/svg">
<rect opacity="0.350303" width="45" height="44" rx="12" fill="white"/>
<path d="M33.5 31C33.5 31 35 31 35 29.5C35 28 33.5 23.5 27.5 23.5C21.5 23.5 20 28 20 29.5C20 31 21.5 31 21.5 31H33.5ZM21.533 29.5C21.5219 29.4985 21.5109 29.4965 21.5 29.494C21.5015 29.098 21.7505 27.949 22.64 26.914C23.468 25.9435 24.923 25 27.5 25C30.0755 25 31.5305 25.945 32.36 26.914C33.2495 27.949 33.497 29.0995 33.5 29.494L33.488 29.497C33.481 29.4982 33.474 29.4992 33.467 29.5H21.533ZM27.5 20.5C28.2956 20.5 29.0587 20.1839 29.6213 19.6213C30.1839 19.0587 30.5 18.2956 30.5 17.5C30.5 16.7044 30.1839 15.9413 29.6213 15.3787C29.0587 14.8161 28.2956 14.5 27.5 14.5C26.7044 14.5 25.9413 14.8161 25.3787 15.3787C24.8161 15.9413 24.5 16.7044 24.5 17.5C24.5 18.2956 24.8161 19.0587 25.3787 19.6213C25.9413 20.1839 26.7044 20.5 27.5 20.5ZM32 17.5C32 18.0909 31.8836 18.6761 31.6575 19.2221C31.4313 19.768 31.0998 20.2641 30.682 20.682C30.2641 21.0998 29.768 21.4313 29.2221 21.6575C28.6761 21.8836 28.0909 22 27.5 22C26.9091 22 26.3239 21.8836 25.7779 21.6575C25.232 21.4313 24.7359 21.0998 24.318 20.682C23.9002 20.2641 23.5687 19.768 23.3425 19.2221C23.1164 18.6761 23 18.0909 23 17.5C23 16.3065 23.4741 15.1619 24.318 14.318C25.1619 13.4741 26.3065 13 27.5 13C28.6935 13 29.8381 13.4741 30.682 14.318C31.5259 15.1619 32 16.3065 32 17.5ZM21.404 23.92C20.804 23.7311 20.1855 23.6069 19.559 23.5495C19.207 23.516 18.8536 23.4995 18.5 23.5C12.5 23.5 11 28 11 29.5C11 30.5005 11.4995 31 12.5 31H18.824C18.6016 30.5317 18.4907 30.0183 18.5 29.5C18.5 27.985 19.0655 26.437 20.135 25.144C20.4995 24.703 20.924 24.2905 21.404 23.92ZM18.38 25C17.4922 26.3339 17.0127 27.8977 17 29.5H12.5C12.5 29.11 12.746 27.955 13.64 26.914C14.4575 25.96 15.878 25.03 18.38 25.0015V25ZM13.25 18.25C13.25 17.0565 13.7241 15.9119 14.568 15.068C15.4119 14.2241 16.5565 13.75 17.75 13.75C18.9435 13.75 20.0881 14.2241 20.932 15.068C21.7759 15.9119 22.25 17.0565 22.25 18.25C22.25 19.4435 21.7759 20.5881 20.932 21.432C20.0881 22.2759 18.9435 22.75 17.75 22.75C16.5565 22.75 15.4119 22.2759 14.568 21.432C13.7241 20.5881 13.25 19.4435 13.25 18.25ZM17.75 15.25C16.9544 15.25 16.1913 15.5661 15.6287 16.1287C15.0661 16.6913 14.75 17.4544 14.75 18.25C14.75 19.0456 15.0661 19.8087 15.6287 20.3713C16.1913 20.9339 16.9544 21.25 17.75 21.25C18.5456 21.25 19.3087 20.9339 19.8713 20.3713C20.4339 19.8087 20.75 19.0456 20.75 18.25C20.75 17.4544 20.4339 16.6913 19.8713 16.1287C19.3087 15.5661 18.5456 15.25 17.75 15.25Z" fill="white"/>
</svg>
